<svg version="1.1" id="Layer_1" xmlns="http://www.w3.org/2000/svg" xmlns:xlink="http://www.w3.org/1999/xlink" x="0px" y="0px"
	 width="100%" viewBox="0 0 1024 1024" enable-background="new 0 0 1024 1024" xml:space="preserve">
<path fill="#000000" opacity="1.000000" stroke="none" 
	d="
M725.770020,613.695068 
	C739.663513,606.017273 752.702087,597.349365 768.569397,594.317017 
	C719.073242,630.909729 676.969177,675.427734 632.567200,717.433594 
	C632.836548,717.786072 633.105835,718.138489 633.375183,718.490967 
	C654.366821,704.278381 675.326355,690.018127 696.359192,675.866882 
	C717.166687,661.867310 736.885010,646.178894 759.128296,633.664612 
	C760.057495,636.646667 758.814148,637.423523 757.860352,638.278076 
	C739.444092,654.777283 723.175903,673.343628 706.938477,691.888184 
	C683.467529,718.694153 656.557800,741.318848 626.413330,760.172607 
	C601.270264,775.898315 576.096558,791.576477 550.817688,807.082214 
	C547.373169,809.195007 546.651306,811.261841 548.142517,814.799927 
	C551.089905,821.792725 553.835876,828.870422 556.942627,836.604004 
	C564.291931,826.987854 570.400513,817.657532 577.753601,809.290405 
	C594.701355,790.005310 614.229065,773.757629 635.653320,759.675659 
	C672.265198,735.610840 709.230042,712.078796 745.263184,687.137878 
	C749.367615,684.296997 753.683167,681.758240 757.938232,679.140137 
	C759.008545,678.481567 760.096375,677.439697 761.640320,678.398987 
	C762.179077,680.484619 760.668335,681.761292 759.589233,683.118347 
	C728.047791,722.784058 693.325928,759.324158 652.718689,789.856140 
	C628.414307,808.130249 602.088501,823.187073 574.546631,836.088318 
	C571.229797,837.642029 567.988586,839.413391 564.555481,840.647705 
	C560.792664,842.000549 560.319397,843.891418 561.886963,847.454468 
	C573.572388,874.015442 586.608154,899.882751 600.912476,925.129944 
	C612.519409,945.616211 626.008728,964.835266 639.760681,983.891785 
	C640.637756,985.107117 641.469482,986.356384 642.292114,987.609680 
	C644.199463,990.515381 644.997009,993.568787 642.074463,996.177979 
	C639.037170,998.889648 635.523438,1000.217163 631.587463,997.769470 
	C628.814575,996.044983 627.088623,993.350708 625.271118,990.767822 
	C601.305359,956.709961 581.847717,920.120239 564.504395,882.352173 
	C559.986328,872.513245 555.684509,862.575134 551.217896,852.712219 
	C550.419983,850.950317 550.147644,848.809631 547.404175,847.259155 
	C498.935394,883.654175 440.982025,892.203308 382.814941,901.313782 
	C382.872284,898.127991 384.856964,897.885803 386.239044,897.353210 
	C409.448700,888.408936 430.919952,875.755859 453.690674,865.858398 
	C482.262939,853.439392 511.371124,843.258057 542.848694,841.647400 
	C543.626221,841.607605 544.387146,841.242432 545.027527,841.064575 
	C545.932556,839.040710 544.731506,837.614685 544.307068,836.068726 
	C543.198914,832.033020 541.087158,831.172974 536.896973,832.566711 
	C514.943359,839.869019 493.073059,847.569641 469.979645,850.674744 
	C455.395538,852.635620 440.751343,852.791992 426.097076,851.772156 
	C405.173431,850.315918 384.253326,848.800781 363.342255,847.174927 
	C352.557831,846.336426 341.795746,845.209290 331.025146,844.196045 
	C330.190338,844.117493 329.388916,843.876831 328.964996,842.499939 
	C333.296234,839.850037 338.350769,840.138367 343.088440,839.311646 
	C369.475952,834.707031 395.935303,830.490662 422.259491,825.552002 
	C455.537445,819.308716 488.806305,819.509521 522.223572,823.969910 
	C527.771790,824.710510 533.234863,826.372986 540.189514,826.043274 
	C537.825806,819.684937 535.717896,813.692078 533.343445,807.806763 
	C532.542725,805.822083 530.603821,806.464050 528.944397,806.849365 
	C511.580109,810.881165 494.066864,814.060852 476.313538,815.783813 
	C454.881317,817.863831 433.415283,818.118591 411.937561,816.611145 
	C371.380554,813.764709 332.987091,801.165833 294.198425,790.369446 
	C286.498474,788.226196 278.855316,785.878967 271.183319,783.634827 
	C268.996613,782.995239 266.773804,782.432251 264.786133,779.861145 
	C270.633026,778.236145 275.913757,779.560059 281.023254,779.918030 
	C308.429474,781.838196 335.835663,783.417725 363.309662,784.229553 
	C390.457672,785.031738 417.641632,783.713501 444.753845,785.755859 
	C472.713257,787.862122 500.337891,792.024353 527.356323,799.733215 
	C528.128357,799.953552 528.929260,800.072937 530.151062,800.331299 
	C530.063416,795.770264 528.338806,792.011902 526.782654,788.257080 
	C525.613770,785.436768 522.884705,786.245728 520.645813,786.159607 
	C498.184296,785.295471 475.697449,784.899841 453.326813,782.401855 
	C415.299133,778.155579 378.922729,768.064209 343.827606,752.747375 
	C320.166290,742.420532 296.015869,733.207581 273.257538,720.901306 
	C267.986359,718.050964 262.908936,714.835632 257.803772,711.688660 
	C256.188843,710.693176 254.172577,709.882080 254.077728,707.410156 
	C255.871414,705.935120 257.608002,706.933105 259.257965,707.470398 
	C291.060181,717.827087 323.859467,723.621338 356.913269,727.664917 
	C397.987335,732.689575 437.870514,741.739685 476.048309,758.005676 
	C490.150665,764.013977 504.230316,770.028625 517.959229,776.848145 
	C519.419678,777.573547 520.805725,778.543640 522.779419,778.532776 
	C523.741943,776.031921 522.498535,773.917053 521.934326,771.788757 
	C520.613037,766.804932 518.996277,761.895081 517.806335,756.882385 
	C516.993103,753.456482 515.083435,751.870850 511.670624,751.391357 
	C486.182343,747.810913 461.358368,741.575439 437.288696,732.429199 
	C385.255524,712.656982 337.564270,685.676392 296.087280,648.135620 
	C278.145599,631.896606 260.514221,615.421814 245.658875,596.236572 
	C241.656784,591.068115 237.342300,586.006531 235.595016,579.014832 
	C264.163208,603.337646 295.327911,623.274048 329.522339,638.588318 
	C312.745026,622.829224 296.268219,606.899719 280.959381,589.833069 
	C265.665619,572.783142 250.929123,555.310120 243.696381,532.920776 
	C246.029495,531.909973 246.719437,533.072449 247.350235,533.952515 
	C262.519531,555.117432 283.448212,569.650513 304.621704,583.951477 
	C330.014557,601.102295 358.256836,612.868286 385.289856,626.914734 
	C419.748077,644.819336 453.586609,663.830078 487.064209,683.489807 
	C491.360352,686.012695 495.296875,689.145630 499.422791,691.962524 
	C500.232605,692.515442 501.102142,693.113220 502.481049,692.487244 
	C503.717194,687.803711 501.795929,683.167480 501.439056,678.461365 
	C501.225983,675.651794 500.497406,672.884155 500.065155,670.087708 
	C498.731415,661.459717 498.719604,661.546936 489.995117,659.210632 
	C439.911865,645.799194 393.687714,624.214844 351.569244,593.891968 
	C325.525269,575.141907 301.982788,553.536499 279.096222,531.142151 
	C263.256531,515.643066 247.278549,500.285370 232.737976,483.530853 
	C229.358017,479.636261 226.240479,475.507599 223.125320,471.393402 
	C222.189865,470.157959 220.934464,468.829895 222.012695,466.064758 
	C226.331985,469.122833 230.519897,471.924438 234.534164,474.955933 
	C265.702179,498.493774 298.641357,519.287354 332.730774,538.283508 
	C362.401459,554.817383 392.887482,569.965149 420.386292,590.168335 
	C420.702576,590.400757 421.247437,590.322021 422.010468,590.004211 
	C390.672882,564.837341 363.993530,535.355591 339.536469,503.680450 
	C315.177643,472.132599 294.117554,438.455261 273.562714,405.029388 
	C274.450470,402.272827 276.818268,404.438782 277.890045,401.822174 
	C271.801636,391.348572 262.764954,381.837585 259.127777,369.070862 
	C275.465576,385.199188 292.759003,400.050354 310.603271,414.269226 
	C328.518463,428.544495 346.822479,442.290192 366.089081,454.937103 
	C327.466248,417.075989 296.267883,373.469330 265.190460,329.767273 
	C265.825104,329.137177 266.459717,328.507080 267.094330,327.876984 
	C289.412445,343.829742 310.018097,362.087769 332.489532,377.840057 
	C355.029755,393.640594 377.338928,409.759918 398.045502,428.268707 
	C381.034393,403.193970 366.537537,376.884308 353.444092,349.837891 
	C340.433533,322.962646 324.386566,297.800629 310.076324,271.506073 
	C324.224579,281.233734 335.087708,294.282379 347.983734,305.450836 
	C341.898926,287.127136 333.428223,269.885529 328.437500,251.173950 
	C354.658966,290.187256 384.806793,325.924713 415.265167,361.653900 
	C404.591736,336.053619 395.008514,310.139069 387.957977,283.376709 
	C380.929260,256.697266 372.249176,230.411575 367.130402,203.265732 
	C367.917725,202.967438 368.705048,202.669159 369.492371,202.370880 
	C383.857178,235.494919 400.345825,267.459625 420.056427,297.706757 
	C405.552643,259.383789 394.670746,219.737488 375.312744,182.537003 
	C379.395752,182.546234 380.362488,184.923370 381.667999,186.611496 
	C408.032349,220.703094 431.251709,256.799469 450.876495,295.193787 
	C468.392212,329.461792 486.100311,363.633667 502.305939,398.551910 
	C504.587708,403.468384 506.536224,408.539551 509.568237,413.474030 
	C511.971802,401.814484 514.357483,390.151184 516.791077,378.497894 
	C517.426392,375.455627 515.763855,373.571564 513.895569,371.512482 
	C488.536957,343.563690 464.522400,314.578033 447.069580,280.840546 
	C436.778656,260.947479 429.672394,239.809372 423.723633,218.228531 
	C417.572937,195.915176 413.311920,173.184875 408.076721,150.671371 
	C407.677826,148.956024 406.972931,147.142426 408.993408,144.312622 
	C421.636871,161.884705 431.039795,180.902817 442.604340,198.522018 
	C454.199219,216.187393 465.657135,233.966415 476.079773,252.516266 
	C461.186890,208.860703 454.125305,163.288193 441.111938,118.322815 
	C445.790649,119.541367 446.703247,122.678474 447.989532,125.123413 
	C455.668335,139.719330 462.898346,154.530457 469.310333,169.745331 
	C476.426056,186.630234 483.854187,203.383606 491.180389,220.179382 
	C491.689362,221.346283 491.948853,222.757294 494.240356,223.812607 
	C480.039612,177.602432 476.677734,129.701401 463.195007,83.892731 
	C488.929016,113.694763 496.793732,151.389771 509.302734,187.083160 
	C502.083160,147.721176 501.273590,107.334335 488.213348,68.664902 
	C492.269836,68.438217 493.169434,70.918800 494.438416,72.641594 
	C504.286713,86.012512 509.948761,101.258873 514.165894,117.138268 
	C517.968933,131.458694 522.481750,145.590546 525.565613,160.103500 
	C525.798584,161.200027 526.426880,162.212570 527.558472,163.208084 
	C523.776367,123.823563 523.447144,84.427567 525.251404,44.872398 
	C533.995972,70.303040 539.268860,96.472633 544.486206,122.713112 
	C544.029053,92.943909 543.649719,63.212482 538.420959,33.430889 
	C542.209045,33.732269 542.480896,36.249298 543.311523,38.015221 
	C551.303772,55.007446 555.975830,72.993546 559.352478,91.394348 
	C562.542908,108.780128 564.149231,126.331543 565.479126,143.925522 
	C565.651184,146.202621 566.051392,148.462479 567.155762,150.830322 
	C571.510803,128.805878 574.746521,106.629829 580.499756,84.948212 
	C586.307617,63.060974 595.555786,42.496460 603.780334,21.414759 
	C607.099731,65.961411 596.982788,108.592575 586.422607,151.328613 
	C593.328064,139.669144 597.765869,126.907745 604.548401,115.303337 
	C611.461243,103.476280 619.177429,92.232552 627.580078,81.448814 
	C635.819458,70.874519 642.324280,58.937538 651.531250,48.894192 
	C653.553345,50.971931 653.028931,52.268353 652.637207,53.527126 
	C643.772827,82.011040 634.549194,110.349945 620.191711,136.697281 
	C605.724304,163.246109 589.067688,188.321472 569.981506,211.776627 
	C566.918579,215.540680 564.466553,219.547455 564.567444,226.025940 
	C567.782959,221.868973 570.390564,218.729477 572.746887,215.411499 
	C583.063293,200.884750 592.612427,185.836533 603.085632,171.404907 
	C619.874817,148.270157 638.429016,126.737480 659.182495,107.085571 
	C663.173340,103.306557 666.953857,99.306175 670.900146,95.478821 
	C672.140137,94.276161 673.061279,92.374138 676.607544,93.056854 
	C665.378540,130.473892 643.668213,161.292313 619.042542,190.551468 
	C642.411133,168.884460 666.582275,148.216232 690.193359,126.901016 
	C690.851868,127.484207 691.510376,128.067398 692.168945,128.650589 
	C676.313171,159.432571 656.055969,187.279953 632.949097,214.117752 
	C636.222290,214.439529 637.638123,212.704529 639.181885,211.457794 
	C654.345093,199.212311 669.389648,186.817581 684.675232,174.727432 
	C689.092957,171.233276 694.160767,168.554733 698.970581,165.566742 
	C700.204285,164.800339 701.491699,163.884018 704.301331,164.902847 
	C693.570007,180.309280 682.091064,194.709549 670.164001,208.709808 
	C658.073608,222.901764 644.240662,235.471619 631.271790,248.973145 
	C654.313416,234.254578 677.803406,220.409088 702.063354,207.513168 
	C681.667725,232.246292 657.587097,253.144928 634.365784,274.978485 
	C666.360046,256.593475 693.275879,230.857010 724.439392,211.311127 
	C725.037109,212.012421 725.634766,212.713715 726.232483,213.415009 
	C703.388977,238.249344 680.024475,262.588470 655.692993,286.088684 
	C683.399902,268.414856 706.655396,244.849609 734.192932,225.389359 
	C734.501282,229.714020 732.144714,231.361908 730.478088,233.190170 
	C719.029053,245.749878 707.373413,258.122375 695.993530,270.743774 
	C674.129272,294.993347 651.802673,318.808167 629.229675,342.395447 
	C628.444641,343.215729 627.464905,343.970093 627.579773,346.466888 
	C664.725220,322.509308 702.280945,300.258514 735.937439,271.965271 
	C727.831848,285.273499 717.612793,296.627991 706.508179,308.543060 
	C710.222229,308.426086 712.176941,306.720520 714.067139,305.104401 
	C720.143921,299.908783 726.137634,294.616150 732.180176,289.380310 
	C733.647705,288.108673 734.880554,286.351471 737.556641,286.674316 
	C738.146851,289.450439 736.107361,291.264709 734.893372,293.195496 
	C722.426758,313.023376 707.540039,330.956543 691.440125,347.892151 
	C681.679443,358.159485 672.442383,368.872406 663.721375,380.224976 
	C687.448975,361.389771 711.176636,342.554565 735.070435,323.587463 
	C736.873657,326.764801 735.034363,328.249878 734.034424,329.784851 
	C724.818542,343.931396 713.819824,356.669556 702.458252,369.085724 
	C694.830078,377.421906 686.858887,385.444153 679.041138,393.606842 
	C679.289856,393.973145 679.538574,394.339447 679.787231,394.705750 
	C701.668762,381.199921 723.550293,367.694092 745.431824,354.188293 
	C745.916626,354.919708 746.401367,355.651154 746.886169,356.382568 
	C681.767334,421.677429 607.552307,475.091217 528.195190,521.854736 
	C539.828613,518.817871 549.905273,512.866455 559.722046,506.465179 
	C578.281677,494.362976 596.501831,481.751495 614.863403,469.359467 
	C631.716187,457.985748 650.649658,450.195953 669.172241,441.813538 
	C696.180603,429.590790 723.075745,417.118011 750.081970,404.890533 
	C753.575806,403.308716 757.034851,401.091278 761.128601,401.379883 
	C761.452087,401.831879 761.775574,402.283875 762.098999,402.735870 
	C752.320007,410.235168 742.541077,417.734467 732.762085,425.233765 
	C740.305298,422.031067 747.088623,417.639435 755.074036,415.396484 
	C738.863281,433.401428 721.199707,449.802216 704.159851,467.015839 
	C723.549866,458.006104 741.190735,445.554901 761.910828,439.231201 
	C751.393677,450.373322 738.298584,458.287201 727.032166,468.407379 
	C715.635742,478.644226 703.644897,488.218872 691.925842,498.097076 
	C680.283997,507.910187 668.656433,517.740112 657.271729,527.938477 
	C686.668579,509.751465 717.602234,494.862915 749.975342,482.949402 
	C750.441528,482.777832 751.134644,483.223053 753.175598,483.769958 
	C741.552002,492.525024 730.801880,500.622192 720.051758,508.719360 
	C720.198669,508.960449 720.345581,509.201538 720.492493,509.442627 
	C729.927185,505.167023 739.361877,500.891418 748.796570,496.615814 
	C749.141479,497.124847 749.486389,497.633850 749.831238,498.142883 
	C740.759644,507.476685 730.197205,515.271667 721.014954,524.918823 
	C732.938293,523.119568 743.553284,516.527161 756.115173,516.496338 
	C705.798157,542.165771 668.759583,582.068909 635.803589,626.479492 
	C668.625854,601.495117 703.608887,579.550842 735.004944,552.656982 
	C735.675415,553.337524 736.345886,554.018066 737.016357,554.698547 
	C721.431152,575.908264 706.032104,597.265015 689.081055,617.457520 
	C671.969788,637.840881 653.294739,656.788879 634.829346,676.098755 
	C664.045349,653.812805 694.068359,632.848511 725.770020,613.695068 
M304.574280,539.505371 
	C302.159668,537.971741 300.886047,534.446045 296.608215,534.961731 
	C298.655853,538.682556 300.861237,540.972595 304.880890,540.523254 
	C305.257568,545.307312 309.634338,546.589050 312.543304,549.041626 
	C350.505585,581.047546 391.228088,608.937256 435.866791,630.860352 
	C446.104340,635.888184 456.237610,641.301758 468.193573,644.751953 
	C465.667847,641.898010 463.118744,640.730469 460.730804,639.393799 
	C420.730225,617.004028 382.252258,592.197144 344.419891,566.352295 
	C331.371185,557.438171 318.141235,548.789429 304.574280,539.505371 
M589.628967,910.830078 
	C573.822266,881.098694 559.197876,850.827026 546.796509,819.484070 
	C534.209595,787.672241 524.104675,755.117126 516.349609,721.817749 
	C511.515015,701.058838 508.046051,680.083069 505.385468,658.917114 
	C502.244476,633.929688 500.645294,608.875427 499.907318,583.740295 
	C499.036407,554.076538 501.418274,524.518494 502.741089,494.920746 
	C503.109009,486.688324 505.641968,478.638062 504.623566,469.647400 
	C499.828094,495.932648 498.332184,521.867615 497.481354,547.782593 
	C496.157837,588.094727 497.642395,628.321716 503.092194,668.378845 
	C508.379578,707.241760 516.922302,745.348511 528.315186,782.830811 
	C536.706787,810.439087 547.548035,837.133789 559.188782,863.513550 
	C578.528687,907.340942 600.278809,949.852356 627.739929,989.247375 
	C629.062195,991.144348 630.593628,992.964172 632.315430,994.496765 
	C634.438965,996.387146 636.959717,996.306458 639.194763,994.593445 
	C641.706665,992.668518 640.574341,990.465332 639.299866,988.396667 
	C638.426880,986.979614 637.510986,985.579346 636.501953,984.257324 
	C618.971985,961.288330 603.717712,936.865540 589.628967,910.830078 
M539.066528,450.579285 
	C536.439026,452.987000 533.266663,454.838531 531.480103,458.161560 
	C571.566895,430.254852 610.684387,401.044678 650.126465,372.260529 
	C610.347717,405.750092 567.603516,435.359375 526.439819,467.048187 
	C534.996826,463.765625 542.298096,458.547760 549.812500,453.659210 
	C583.617249,431.667114 616.895569,408.935486 647.879211,383.047119 
	C668.970459,365.424347 689.914917,347.604523 707.238037,326.043823 
	C708.450562,324.534668 710.288025,323.225647 710.184875,319.760315 
	C705.521851,324.266022 701.629639,328.076233 697.681580,331.827789 
	C693.818298,335.498779 689.908386,339.120819 686.000427,342.744446 
	C681.970154,346.481445 677.906067,350.181824 673.878479,353.921631 
	C670.031433,357.493835 666.141113,360.994019 661.178711,363.051605 
	C678.107788,346.010284 696.866211,330.917969 712.800781,311.779053 
	C710.044189,311.943207 708.995117,313.084778 707.932495,314.042389 
	C689.383789,330.759766 670.746155,347.381348 652.381042,364.298676 
	C640.112366,375.600128 627.529968,386.564148 613.810242,395.976593 
	C588.542847,413.311218 562.766663,429.907440 539.066528,450.579285 
M647.753967,547.289185 
	C604.768616,578.897156 562.742126,611.665100 524.458557,648.994873 
	C527.264832,647.806580 529.876587,646.366211 532.285217,644.642273 
	C550.569397,631.555420 568.753540,618.328064 587.087463,605.311523 
	C605.853821,591.988098 622.146301,575.567017 641.100159,562.482056 
	C657.952087,550.848206 674.557312,538.861267 690.403870,525.882324 
	C693.863525,523.048706 698.263245,520.842285 700.312988,514.745911 
	C681.460693,524.479370 664.527649,535.061340 647.753967,547.289185 
M609.067627,678.568665 
	C589.168762,697.997009 569.550049,717.692688 551.544006,738.924438 
	C550.029724,740.709961 548.343689,742.435608 547.781738,746.060303 
	C550.025452,744.084412 551.454285,742.967957 552.719666,741.689758 
	C565.393372,728.887573 579.306824,717.466125 593.084717,705.929138 
	C623.114502,680.783508 652.687500,655.196045 678.141052,625.240540 
	C685.202454,616.930176 692.331238,608.676941 698.113220,599.274902 
	C669.129517,626.181030 637.984375,650.586792 609.067627,678.568665 
M394.057953,452.453369 
	C364.749268,423.300934 333.406158,396.338348 303.583527,367.739166 
	C317.201202,395.042053 443.904694,514.219727 471.807312,526.104614 
	C445.901123,500.868652 420.460785,476.668396 394.057953,452.453369 
M464.821136,488.671478 
	C432.234070,454.383667 403.528229,417.155090 379.184235,376.547516 
	C368.999908,359.559296 358.166687,342.959686 347.589172,326.208221 
	C346.617462,324.669281 345.769104,322.852936 343.417297,322.116974 
	C375.290771,391.856079 413.018036,456.634766 476.697388,502.099274 
	C477.151398,501.679871 477.605377,501.260498 478.059387,500.841125 
	C473.808807,496.955627 469.558228,493.070160 464.821136,488.671478 
M588.906982,402.381409 
	C617.002319,384.004944 698.194153,315.238159 699.632874,308.519318 
	C697.275146,308.808411 695.808289,310.550232 694.188843,311.865234 
	C664.599548,335.891479 635.296082,360.229614 602.946838,380.670349 
	C580.836975,394.641083 561.181274,412.075531 540.333862,427.836029 
	C536.330444,430.862610 531.881836,433.573059 529.346436,438.392578 
	C549.964722,428.087921 569.075134,415.336060 588.906982,402.381409 
M597.087097,538.564270 
	C618.770996,524.547729 639.824707,509.606537 660.802795,494.577545 
	C676.220825,483.531830 692.140686,473.092926 706.066833,460.079712 
	C708.840393,457.487946 712.086792,455.273560 714.418823,451.253326 
	C695.332642,459.927368 531.259949,573.466431 527.227295,581.139160 
	C551.432678,567.909485 574.366577,554.115845 597.087097,538.564270 
M374.252350,690.204956 
	C416.367279,714.551453 484.596649,743.524536 497.855042,741.834534 
	C434.381409,712.408630 372.618347,682.476196 313.617432,647.134583 
	C313.213898,647.833130 312.810364,648.531677 312.406830,649.230164 
	C332.009674,663.941406 352.669525,677.103699 374.252350,690.204956 
M448.070648,707.486511 
	C404.296875,681.579651 357.482727,661.921448 311.320648,640.891235 
	C369.934540,678.379089 432.369171,708.506531 495.350891,737.584778 
	C495.585266,737.176514 495.819672,736.768311 496.054047,736.360046 
	C480.268341,726.863770 464.482635,717.367493 448.070648,707.486511 
M417.587860,428.936310 
	C436.803253,455.102753 458.834961,478.763336 481.863983,501.549805 
	C479.524872,497.666504 476.875885,494.048798 474.176910,490.468811 
	C450.711060,459.343109 426.813049,428.536011 404.156891,396.810944 
	C386.638245,372.279907 369.562286,347.432953 352.219208,322.775879 
	C350.600586,320.474640 349.169922,317.768036 345.771881,317.147156 
	C369.612640,354.228180 390.604706,393.073456 417.587860,428.936310 
M342.796844,478.702271 
	C333.530334,469.576935 325.591431,459.106842 314.919739,451.339203 
	C324.224640,464.660461 334.886139,476.834869 345.833435,488.749451 
	C386.412170,532.913635 433.005463,570.528442 477.741150,611.132874 
	C478.277222,608.674866 477.268188,608.138306 476.645905,607.453186 
	C469.258850,599.320068 462.099426,590.960205 454.384979,583.149048 
	C440.118439,568.703552 426.976105,552.940552 411.100250,540.333862 
	C387.183044,521.341797 364.239441,501.424011 342.796844,478.702271 
M437.846741,512.698853 
	C431.601746,508.540283 425.949615,503.467102 418.882233,500.427948 
	C444.595764,526.694580 469.153046,553.908447 492.153687,582.615295 
	C494.235504,580.676697 493.690948,578.902710 493.715698,577.321899 
	C493.840881,569.325989 493.729187,561.323853 493.995605,553.333740 
	C494.120514,549.587463 492.885681,547.289612 489.614410,545.226135 
	C472.580139,534.480896 455.048889,524.525208 437.846741,512.698853 
M629.691711,628.232727 
	C638.512329,616.519043 647.448486,604.890137 657.253845,593.978088 
	C666.914917,583.226562 676.342041,572.260010 686.659363,562.099060 
	C658.791382,584.858154 634.696960,611.286499 611.130310,638.281555 
	C587.627014,665.204041 563.697144,691.754150 539.954224,718.467468 
	C540.287231,718.767151 540.620239,719.066833 540.953247,719.366516 
	C573.256470,691.991577 604.755798,663.827454 629.691711,628.232727 
M713.513489,381.649109 
	C711.992004,382.666718 710.430420,383.629578 708.954956,384.710022 
	C676.173584,408.714294 644.394226,434.083221 610.608276,456.720520 
	C587.350098,472.304016 565.599304,489.969147 542.759827,506.136169 
	C538.472961,509.170685 533.910889,511.902557 530.511597,516.149292 
	C536.650757,512.940369 542.584045,509.412292 548.418396,505.727386 
	C590.098816,479.401947 632.179382,453.659943 669.722656,421.369965 
	C683.738831,409.315033 698.007141,397.553467 712.141174,385.635223 
	C714.433838,383.701996 714.387207,383.646667 713.513489,381.649109 
M467.213837,708.225403 
	C482.779327,718.585144 497.966034,729.467163 512.376343,742.135986 
	C512.835876,740.723999 513.178467,740.239502 513.094849,739.845520 
	C510.612427,728.153992 508.105194,716.467651 505.554962,704.790710 
	C505.047241,702.466064 503.172455,701.797791 501.085205,701.463745 
	C480.233795,698.126404 459.641052,693.603516 439.281982,688.000610 
	C437.694824,687.563904 436.023834,686.667603 433.504181,688.078552 
	C445.200409,694.555054 456.047485,700.960876 467.213837,708.225403 
M597.103210,638.585632 
	C573.769775,663.099854 539.696533,707.639099 538.260437,715.174927 
	C589.095215,663.434204 631.711914,603.488159 687.497375,555.817688 
	C654.761353,580.223572 624.323242,607.115784 597.103210,638.585632 
M553.198181,407.696320 
	C550.786438,409.996613 548.356506,412.278198 545.968262,414.602539 
	C543.580078,416.926788 541.195862,419.257324 538.879822,421.652740 
	C536.745117,423.860687 534.207336,425.806763 533.250977,428.909149 
	C534.926025,428.448242 536.217773,427.703613 537.377747,426.791443 
	C568.425415,402.377472 599.950256,378.651520 633.122131,357.122803 
	C650.749634,345.682434 665.812317,330.802185 682.496460,318.056671 
	C685.689087,315.617676 688.699890,312.940521 691.794556,310.373230 
	C642.586670,338.229156 596.618469,370.551178 553.198181,407.696320 
M451.296967,425.228607 
	C461.968750,438.251556 472.640533,451.274506 483.312347,464.297455 
	C482.248047,453.899689 374.671051,312.575745 362.977173,304.861633 
	C362.236328,307.142914 363.721619,308.734589 364.747742,310.279602 
	C370.914948,319.565308 377.130157,328.820923 383.458252,337.997711 
	C404.268372,368.175903 427.361145,396.582611 451.296967,425.228607 
M398.241455,373.231903 
	C384.993103,355.487488 371.273773,338.134979 356.098572,321.991882 
	C395.184631,382.478302 438.578857,439.780701 482.846649,496.446381 
	C458.768494,452.811798 429.014648,413.105743 398.241455,373.231903 
M693.491638,492.988190 
	C697.710022,489.404755 701.928406,485.821289 706.146790,482.237854 
	C705.684326,481.659271 705.221863,481.080719 704.759460,480.502136 
	C647.867432,523.299133 591.313049,566.555542 533.284790,607.872253 
	C535.108582,607.759277 536.696899,607.296326 538.110901,606.517029 
	C569.046814,589.465698 599.298218,571.390869 626.478638,548.581421 
	C648.529663,530.076599 670.788391,511.819244 693.491638,492.988190 
M417.360809,561.154480 
	C383.801971,531.333740 351.191406,500.555695 322.093109,466.231628 
	C338.971313,500.884308 452.651764,609.686646 478.269592,615.114746 
	C457.462128,596.687988 437.671448,579.161743 417.360809,561.154480 
M390.581573,498.900848 
	C412.973053,519.147461 435.845734,538.819153 459.942657,557.112976 
	C457.654053,553.429504 455.098969,550.009888 452.032166,547.136292 
	C429.312988,525.848633 407.477295,503.629730 384.210754,482.918427 
	C365.056396,465.867645 345.706940,449.059784 325.023438,433.858765 
	C324.056091,433.147797 323.137665,431.744629 320.978027,433.704803 
	C343.596375,455.802948 366.695374,477.250244 390.581573,498.900848 
M637.743103,585.238342 
	C642.931458,580.799927 648.074951,576.307800 653.320557,571.938110 
	C658.693604,567.462280 664.203552,563.150879 669.585144,558.685120 
	C674.633789,554.495667 679.592957,550.198486 684.591492,545.948669 
	C684.098145,545.424927 683.604736,544.901184 683.111389,544.377441 
	C627.896240,581.399719 579.737732,626.158875 536.900146,677.862610 
	C539.714722,678.167542 540.577942,676.771729 541.588318,675.809692 
	C547.376343,670.298584 553.042603,664.658691 558.865295,659.184875 
	C584.952209,634.661133 611.077820,610.178589 637.743103,585.238342 
M601.808716,571.347168 
	C572.199829,591.764648 546.295166,616.169312 523.497559,643.950989 
	C576.815430,596.577881 632.458923,552.260132 692.296692,513.281677 
	C659.748535,528.521057 630.707031,549.161560 601.808716,571.347168 
M448.936707,378.477295 
	C428.901306,345.075836 410.169098,310.972687 393.915802,275.534943 
	C395.207825,304.741943 466.472107,430.740173 487.647461,441.514771 
	C474.746643,420.511536 462.029449,399.807281 448.936707,378.477295 
M617.527893,667.019470 
	C618.886719,665.792297 620.262573,664.583374 621.601868,663.335266 
	C644.621948,641.882019 669.233582,622.203796 691.872559,600.327515 
	C694.088684,598.186035 696.081726,595.813721 698.178284,593.548523 
	C683.662659,603.728821 670.098022,614.712524 656.408936,625.538818 
	C621.856934,652.864807 588.910461,681.844482 561.922607,716.972412 
	C557.833618,722.294800 553.567017,727.545288 550.987610,733.927979 
	C572.835388,711.573425 593.788635,688.408569 617.527893,667.019470 
M509.508636,798.103882 
	C483.282837,792.400513 456.811584,788.716736 429.933380,788.222900 
	C400.481110,787.681702 371.013611,787.978333 341.575867,786.602478 
	C337.973907,786.434143 334.357239,786.579590 330.747406,786.579590 
	C393.119019,796.216675 456.018707,797.155457 518.819580,800.363586 
	C515.986694,799.662781 513.153870,798.961975 509.508636,798.103882 
M613.904602,719.426086 
	C595.508240,736.379150 577.111938,753.332153 558.715576,770.285217 
	C559.032654,770.625549 559.349792,770.965881 559.666870,771.306213 
	C614.632568,732.091858 662.868591,685.302185 709.968994,637.222168 
	C677.501343,663.741577 645.517090,690.819153 613.904602,719.426086 
M414.124573,530.352783 
	C427.457123,541.066895 440.652405,551.974182 456.055817,559.910828 
	C404.143677,516.652588 355.152161,470.240387 305.507721,424.518738 
	C338.282440,462.992737 374.424652,497.986847 414.124573,530.352783 
M409.451263,463.029449 
	C430.403351,482.815826 451.355469,502.602234 472.307587,522.388611 
	C429.277435,471.332458 382.796509,423.920990 328.475586,384.097717 
	C328.354950,386.703339 330.114014,387.422485 331.126862,388.615448 
	C334.936768,393.102936 340.390015,395.729858 344.343231,400.002838 
	C364.728668,422.037354 387.496765,441.603149 409.451263,463.029449 
M434.606873,319.939087 
	C447.551544,345.439148 481.499237,393.737671 489.607056,397.364655 
	C453.866943,347.447479 428.475159,291.966583 402.788361,236.595810 
	C411.372772,264.928406 420.992645,292.800354 434.606873,319.939087 
M370.832245,794.995850 
	C356.152344,793.434937 341.472443,791.874023 326.792542,790.313049 
	C389.763519,806.367126 453.597260,809.617065 518.029602,803.743896 
	C469.290955,800.528625 420.443909,799.142395 370.832245,794.995850 
M327.283020,407.226471 
	C371.791779,463.004944 439.593109,513.837036 454.316315,518.025757 
	C401.656067,478.018555 354.600189,432.029877 310.154114,383.183746 
	C314.197052,392.189697 320.820282,399.213715 327.283020,407.226471 
M494.044464,340.974884 
	C464.179749,293.517761 438.845245,243.852844 421.146301,190.466705 
	C418.897247,222.703857 473.219330,334.186951 495.287964,343.353394 
	C494.961456,342.668671 494.677216,342.072601 494.044464,340.974884 
M382.964203,577.484070 
	C411.514038,595.911926 439.294800,615.493225 467.557465,634.351807 
	C452.048889,612.026733 338.328094,537.287598 320.607605,538.460815 
	C341.914124,551.784180 362.138733,564.431030 382.964203,577.484070 
M332.255249,625.210327 
	C370.666992,656.576538 447.990753,686.093750 466.389740,686.806030 
	C415.235565,666.121399 366.311798,641.016357 319.099792,612.312622 
	C322.013397,618.031677 327.185120,621.049072 332.255249,625.210327 
M469.827698,737.787964 
	C449.868896,730.744385 430.058319,723.263733 411.199799,713.633057 
	C373.129791,694.191711 337.429688,670.890991 302.756561,645.970337 
	C301.152313,644.817261 299.824768,642.708374 296.001282,643.914124 
	C349.469727,692.077026 410.403961,724.076965 478.811523,742.149902 
	C478.999512,741.767578 479.187469,741.385254 479.375427,741.002930 
	C476.442352,740.010010 473.509277,739.017029 469.827698,737.787964 
M619.768555,500.237885 
	C645.702576,483.618195 672.744629,468.661560 696.667664,448.996368 
	C640.558472,480.929108 584.802734,513.402222 532.362915,551.297546 
	C537.567993,549.267395 542.503906,546.712830 547.479065,544.236816 
	C572.607483,531.731018 595.727051,515.925171 619.768555,500.237885 
M464.649017,636.354126 
	C417.823853,603.380310 370.822510,570.682068 319.850403,542.378113 
	C320.065582,544.212708 319.980194,544.681946 320.158203,544.826172 
	C323.891510,547.851990 327.526306,551.020691 331.431549,553.809753 
	C372.120514,582.868896 414.123077,609.882812 457.601868,634.587158 
	C459.917145,635.902588 462.150665,637.522644 464.640350,638.317871 
	C466.526642,638.920288 465.696625,637.526489 464.649017,636.354126 
M399.970428,745.399292 
	C431.360748,752.246399 462.222229,761.164185 493.193146,769.653381 
	C467.614868,752.132996 350.791504,722.969910 331.385559,729.463440 
	C354.444489,735.575378 376.850647,740.175232 399.970428,745.399292 
M584.969604,772.493042 
	C582.320679,774.777100 579.633240,777.018311 577.033813,779.357422 
	C574.474487,781.660645 571.301758,783.475037 570.411804,787.254517 
	C619.358521,750.507385 671.825317,718.314453 714.759705,673.982117 
	C713.270691,674.427185 712.019470,675.192383 710.884216,676.102234 
	C691.892700,691.322815 672.103333,705.468750 652.320557,719.623779 
	C629.279602,736.109985 606.466492,752.886292 584.969604,772.493042 
M387.142303,647.258240 
	C416.064545,662.162537 445.451904,676.006042 476.412811,686.325989 
	C426.363190,660.195007 376.347321,634.045959 326.383392,607.795776 
	C325.946838,608.567383 325.510284,609.338989 325.073761,610.110535 
	C344.122345,624.657898 365.345795,635.719971 387.142303,647.258240 
M483.937988,443.825012 
	C445.754395,397.140228 414.543976,346.389587 394.074432,289.280060 
	C394.946655,295.284485 396.467316,300.981201 398.195282,306.614288 
	C412.044189,351.761200 432.807068,393.056946 465.895264,427.408081 
	C471.778137,433.515533 478.034485,439.263428 484.134705,445.160492 
	C484.336548,445.355591 484.905548,446.023254 484.882538,444.999908 
	C484.876526,444.732605 484.506409,444.473480 483.937988,443.825012 
M481.683167,285.725311 
	C465.375671,250.649094 446.649841,216.873215 427.002533,183.588318 
	C450.805786,241.566467 479.905975,296.937775 509.511139,352.079376 
	C501.558746,329.680267 492.191589,307.870911 481.683167,285.725311 
M630.439270,496.976227 
	C592.563110,519.440979 559.523865,548.300293 525.410156,575.747253 
	C528.030884,574.823181 530.268799,573.387634 532.430481,571.845215 
	C566.312744,547.669128 599.858459,523.017761 634.642883,500.121704 
	C656.470947,485.753784 678.998535,472.441071 700.033508,456.876434 
	C701.269897,455.961578 703.129333,455.419861 702.821228,452.051605 
	C678.561340,467.107941 654.808289,481.849701 630.439270,496.976227 
M300.421875,543.412231 
	C299.582153,543.060730 298.790649,542.069946 297.828400,543.199097 
	C311.274200,569.063293 426.936737,642.812256 456.531799,643.920715 
	C399.526398,618.501160 348.879364,583.246704 300.421875,543.412231 
M451.548035,766.789673 
	C468.701355,770.500305 485.854675,774.210876 503.007996,777.921448 
	C445.774078,756.883362 386.311951,744.796387 326.805939,732.853699 
	C367.581635,746.075073 408.784576,757.710327 451.548035,766.789673 
M710.984619,717.505920 
	C712.122864,716.087830 714.360779,715.457458 714.465637,712.095642 
	C711.212952,714.083923 708.552429,715.623474 705.980042,717.298462 
	C697.615540,722.744568 689.336975,728.324036 680.928894,733.701477 
	C655.000732,750.284424 628.504028,766.057983 605.054199,786.197754 
	C594.753113,795.044800 585.262451,804.731567 577.110596,815.676758 
	C578.276428,815.061646 579.253601,814.247253 580.170349,813.369751 
	C597.188965,797.081055 615.795654,782.925171 635.953064,770.683594 
	C662.004639,754.862610 687.181458,737.742981 710.984619,717.505920 
M579.567322,770.063293 
	C576.299622,773.494568 573.031921,776.925903 569.764221,780.357178 
	C570.088623,780.724731 570.413025,781.092224 570.737366,781.459717 
	C615.331360,739.115051 668.342651,707.595947 715.416687,668.387024 
	C712.700317,667.632507 711.155273,669.285339 709.456848,670.436218 
	C694.422791,680.623596 679.539368,691.038269 664.378479,701.032410 
	C633.979309,721.071838 604.691040,742.437561 579.567322,770.063293 
M359.045013,800.580139 
	C348.409027,798.776306 337.773041,796.972534 327.137085,795.168701 
	C385.147156,815.346558 444.274292,820.344604 504.608398,808.191711 
	C456.111908,810.790894 407.828979,809.149841 359.045013,800.580139 
M629.666199,426.177490 
	C602.351990,448.244843 572.774475,467.062439 542.084229,486.514740 
	C573.619751,479.834961 700.315796,380.349579 708.410828,355.520844 
	C682.590576,380.631561 657.300598,404.196075 629.666199,426.177490 
M496.075562,333.340637 
	C471.277771,285.546356 446.614227,237.686050 425.127808,188.262497 
	C424.860382,208.654343 486.476440,334.071106 504.631012,350.673370 
	C502.795441,344.430603 499.626526,339.201996 496.075562,333.340637 
M691.496155,263.038177 
	C673.673096,278.868073 653.242859,291.195068 634.321106,305.553467 
	C618.944824,317.221405 602.887573,328.016937 587.820251,340.060089 
	C572.753296,352.102936 558.526733,365.198700 543.982483,377.890991 
	C542.978760,378.766907 541.420288,379.435272 541.469116,381.320282 
	C543.948059,380.771423 545.605286,379.091492 547.481750,377.771027 
	C573.366455,359.555817 597.339722,338.860809 622.628052,319.869171 
	C645.645935,302.582611 669.575623,286.468262 690.937744,267.040039 
	C693.402405,264.798492 696.295471,262.917847 698.002441,259.451569 
	C695.024231,259.433502 693.745911,261.392029 691.496155,263.038177 
M648.801575,511.268066 
	C663.505249,500.430603 678.715637,490.304230 693.647766,479.705627 
	C686.210571,481.487030 679.724060,485.018738 673.615845,489.235565 
	C656.619690,500.968964 639.764709,512.908142 622.705505,524.548401 
	C593.949707,544.169800 565.256653,563.904358 534.383301,580.171143 
	C532.897766,580.953796 531.262207,581.677185 530.494629,583.554321 
	C532.804199,584.157288 534.487732,583.238464 536.103943,582.504517 
	C553.560364,574.576050 570.855042,566.267029 586.648743,555.320618 
	C607.321106,540.992798 627.701355,526.243591 648.801575,511.268066 
M510.083588,653.997620 
	C526.027405,633.514771 544.088623,614.970947 562.821411,596.945801 
	C544.462463,607.048584 525.799133,616.159668 507.338287,625.658203 
	C505.431122,626.639526 505.204865,628.540955 505.419678,630.439087 
	C506.242279,637.706726 507.089691,644.971985 508.005859,652.228271 
	C508.120758,653.138489 507.545502,654.886292 510.083588,653.997620 
M571.035950,373.548462 
	C562.171509,381.668671 553.445435,389.926270 545.600159,399.088654 
	C590.913025,362.485260 638.689026,328.768524 678.759216,284.796509 
	C675.412231,284.770660 674.276123,286.605133 672.839233,287.816467 
	C658.327271,300.050415 643.981995,312.485565 629.338684,324.559387 
	C609.934448,340.558807 590.565979,356.596283 571.035950,373.548462 
M542.142761,658.673218 
	C547.122192,652.538025 552.101624,646.402832 557.330811,639.959900 
	C556.353577,639.898865 555.972534,639.750427 555.760254,639.879578 
	C541.805603,648.364136 527.701660,656.546448 512.290466,662.204956 
	C509.920898,663.074951 509.214874,665.115234 509.522430,667.503357 
	C509.777313,669.482971 510.032196,671.469116 510.435150,673.421814 
	C511.961456,680.818054 512.295471,688.486755 515.374512,696.779968 
	C524.137817,683.378174 532.570496,671.051758 542.142761,658.673218 
M691.476501,391.036072 
	C676.185730,400.201599 661.231567,409.850555 647.444763,421.218292 
	C630.226074,435.415741 612.873779,449.471771 593.959961,461.381287 
	C573.050354,474.547485 553.587341,489.582520 534.933044,505.721283 
	C533.496033,506.964478 531.949402,508.140594 531.643555,510.478180 
	C587.234924,467.939209 646.711792,430.791046 700.579956,385.816376 
	C697.738403,387.411224 694.896851,389.006104 691.476501,391.036072 
M586.719543,811.217896 
	C580.747681,817.284302 574.036743,822.650269 569.222351,829.892029 
	C611.991455,793.990417 661.787720,767.451599 702.724670,729.138916 
	C701.515015,729.318359 700.572205,729.888000 699.687927,730.537292 
	C679.285400,745.518799 658.510010,759.943481 636.892029,773.140137 
	C619.091797,784.006287 602.057129,795.916809 586.719543,811.217896 
M351.997040,514.524658 
	C356.135559,519.522583 360.245270,524.544617 364.417358,529.514343 
	C389.306641,559.162354 417.523041,585.026428 450.688385,605.245728 
	C453.132874,606.736023 455.530823,608.460327 458.779694,608.092285 
	C437.103760,590.679871 415.392151,573.452148 395.131409,554.489868 
	C374.913269,535.567444 356.515076,514.920959 337.935547,494.412292 
	C341.730774,501.490906 346.588837,507.768311 351.997040,514.524658 
M445.877808,319.695618 
	C459.197144,345.393036 474.049744,370.152344 491.323914,393.462524 
	C460.754364,339.542358 433.766235,283.728699 404.266296,229.246658 
	C405.001648,234.933578 407.964539,239.610397 410.244476,244.566574 
	C421.726135,269.525330 432.734100,294.710175 445.877808,319.695618 
M562.697205,522.210938 
	C551.492310,530.641296 540.287354,539.071594 529.082458,547.501953 
	C529.420288,548.002319 529.758179,548.502686 530.096008,549.003113 
	C581.769531,512.037842 636.763000,480.371063 690.808594,447.172333 
	C646.044067,468.227875 603.438049,492.929779 562.697205,522.210938 
M615.840698,277.358978 
	C597.475403,293.091583 579.089050,308.798279 559.427246,322.939117 
	C605.862305,300.516724 641.304199,264.234100 677.904907,229.406998 
	C656.745605,244.402924 636.491577,260.559235 615.840698,277.358978 
M375.788574,337.757202 
	C405.183624,383.017853 466.151978,457.542450 481.020081,465.856903 
	C439.189880,413.249573 394.282471,364.072754 359.177887,307.334961 
	C363.473358,317.961029 369.712250,327.399994 375.788574,337.757202 
M571.993591,570.529663 
	C558.269470,581.454834 544.545349,592.379944 530.821228,603.305115 
	C550.999878,593.719116 677.674255,499.434448 679.792419,492.602600 
	C643.336731,518.638306 607.563049,543.828003 571.993591,570.529663 
M636.143921,460.668457 
	C624.772888,466.632385 613.791870,473.196869 603.469543,480.886810 
	C596.262878,486.255676 589.027832,491.700928 581.276611,496.201141 
	C564.004028,506.229248 548.535706,518.476990 534.307678,532.386475 
	C533.215637,533.454102 531.573486,534.179443 531.264343,536.370911 
	C540.220032,529.497192 548.847351,522.761353 557.593384,516.183350 
	C588.173218,493.183807 621.025146,473.863220 655.044006,456.489624 
	C669.574585,449.068787 684.366028,442.159821 698.995911,434.931122 
	C700.714478,434.081970 703.101379,433.627716 703.585205,429.407013 
	C680.701233,440.024536 658.765442,450.202148 636.143921,460.668457 
M573.592957,628.105286 
	C561.163269,639.630188 550.753113,652.857666 541.079956,666.747864 
	C562.696350,643.481934 584.646179,620.572693 608.207520,599.299438 
	C631.818909,577.981079 657.423645,559.100281 684.025940,539.784119 
	C680.308167,538.814148 679.087402,540.517334 677.663391,541.423950 
	C670.925903,545.713257 664.235107,550.078735 657.594299,554.516724 
	C634.280090,570.097412 612.294678,587.315125 593.078125,607.833435 
	C586.829468,614.505371 581.354919,621.907471 573.592957,628.105286 
M344.657593,744.744263 
	C395.468262,763.466736 447.654022,776.178040 501.731354,780.631531 
	C444.227783,768.626282 387.144135,754.896179 330.854187,737.889893 
	C330.700500,738.451965 330.546814,739.014038 330.393158,739.576111 
	C334.895111,741.231262 339.397095,742.886475 344.657593,744.744263 
M645.245972,243.770782 
	C631.601929,254.429977 616.228271,262.413422 604.498962,276.132660 
	C593.256653,289.282379 578.601196,299.513794 565.447632,311.029907 
	C561.392395,314.580261 557.343384,318.137848 553.291565,321.692139 
	C560.852661,318.628601 666.403625,234.727386 669.750000,229.632309 
	C660.928528,233.077896 653.717407,238.800400 645.245972,243.770782 
M342.479736,642.999451 
	C371.879303,665.161377 406.417114,675.056824 441.061249,684.704407 
	C439.360016,683.233582 437.424469,682.305054 435.417999,681.570068 
	C393.788147,666.320679 354.141602,647.414856 319.613647,619.008301 
	C318.070007,617.738403 316.431244,616.080566 313.087128,616.815552 
	C321.685150,627.210999 331.747711,634.945374 342.479736,642.999451 
M623.171082,792.693970 
	C607.691833,804.137268 591.830139,815.085632 577.585144,828.132446 
	C624.927063,799.379761 671.297363,769.328491 709.937805,728.926575 
	C682.372009,751.628784 653.652954,772.753906 623.171082,792.693970 
M477.128906,413.299133 
	C451.335358,366.692963 422.800568,321.660706 397.940643,274.518494 
	C402.732941,295.020416 477.509949,426.920929 490.810333,438.709351 
	C486.157013,430.033661 481.837006,421.979370 477.128906,413.299133 
M387.517334,845.834961 
	C393.328278,846.239319 399.148621,846.539795 404.948517,847.065918 
	C432.217468,849.539246 459.449371,850.829895 486.452271,844.651611 
	C491.641785,843.464294 496.793640,842.090637 501.916351,840.638916 
	C506.965424,839.208069 511.955414,837.568970 516.971313,836.021179 
	C469.456207,843.654236 421.610748,843.076050 373.819244,844.483643 
	C378.079132,844.921509 382.339020,845.359375 387.517334,845.834961 
M699.964539,692.567688 
	C661.506653,727.584961 617.402039,755.236206 576.439941,786.986755 
	C613.130859,771.941833 689.285645,713.380310 704.556335,688.522339 
	C702.964294,689.926697 701.721741,691.022766 699.964539,692.567688 
M629.684875,410.196289 
	C612.026428,425.208527 593.668030,439.269745 573.660156,451.050598 
	C558.999573,459.682922 544.689392,468.763092 532.905029,481.260071 
	C532.091064,482.123169 530.442383,482.587708 531.173889,484.362579 
	C548.599487,478.359711 685.702820,373.958252 689.774292,362.853821 
	C669.985352,379.600586 649.900574,394.405640 629.684875,410.196289 
M505.503632,422.059967 
	C490.895447,407.149353 478.028046,390.748230 464.688507,374.594177 
	C477.657410,400.099213 491.299316,425.181946 502.350037,452.882538 
	C505.411194,443.238647 505.397186,434.479187 507.483154,426.126801 
	C507.838531,424.703918 506.905090,423.597412 505.503632,422.059967 
M587.544800,735.044678 
	C579.950928,742.557861 572.527405,750.223633 566.193420,758.906433 
	C609.143433,718.995361 653.566650,680.781067 697.491455,641.993958 
	C657.960449,669.246948 621.827209,700.505493 587.544800,735.044678 
M646.418274,387.948334 
	C610.698242,416.578949 572.915161,442.304779 534.679199,467.395721 
	C581.416382,447.838287 619.864319,416.501801 656.243225,382.205231 
	C652.416260,382.816559 649.947266,385.562622 646.418274,387.948334 
M515.349304,290.290802 
	C519.295227,303.283020 523.241150,316.275269 527.187073,329.267487 
	C527.685364,329.175751 528.183594,329.084045 528.681885,328.992340 
	C531.616272,322.297668 532.735901,315.026367 534.985107,308.115601 
	C535.906433,305.284576 535.450378,303.130585 533.725586,300.717346 
	C526.947937,291.234375 520.819031,281.325562 515.194153,271.115204 
	C509.697784,261.138153 504.661163,250.926605 499.682739,240.648438 
	C504.832886,256.937561 509.983002,273.226685 515.349304,290.290802 
M451.012482,312.573608 
	C464.955383,339.651459 479.725891,366.269745 495.039978,392.586151 
	C490.220734,373.302032 426.324219,252.569153 416.089661,243.983093 
	C427.612183,266.628510 439.134705,289.273895 451.012482,312.573608 
M436.117493,599.424927 
	C432.826172,597.288513 429.534821,595.152100 426.243500,593.015686 
	C450.166779,612.694641 473.200317,633.254761 497.549957,653.771729 
	C498.082825,646.471924 496.891296,640.757690 496.197845,635.009033 
	C495.958496,633.024841 494.847382,631.800537 492.979767,630.956116 
	C473.389282,622.098755 454.810394,611.403625 436.117493,599.424927 
M635.518372,591.031616 
	C607.568542,614.949280 543.405334,676.700623 540.367676,682.976868 
	C544.341431,679.952148 547.845032,677.436768 551.183777,674.718811 
	C569.366882,659.916626 587.760193,645.502747 603.178650,627.468872 
	C620.032104,607.756714 639.074158,590.052063 658.976196,573.350525 
	C660.270508,572.264343 662.048584,571.406494 662.262451,568.362183 
	C652.754089,575.592896 644.414917,583.095154 635.518372,591.031616 
M665.238220,267.745667 
	C631.364990,296.148804 598.122864,325.344360 561.326477,350.077759 
	C608.450256,325.598969 648.004639,291.595001 683.483459,252.456726 
	C677.586060,257.403168 671.688721,262.349609 665.238220,267.745667 
M589.025574,729.523071 
	C620.827148,698.252563 654.528015,669.157288 689.977112,642.064148 
	C660.114319,654.802612 570.025635,736.341553 562.878601,757.102600 
	C571.415710,747.159790 580.035400,738.655884 589.025574,729.523071 
M522.975586,859.436707 
	C528.373352,856.736511 533.523987,853.656006 539.297791,848.980896 
	C499.931549,864.129944 461.416595,877.573120 422.933380,891.111145 
	C457.635773,885.547302 491.478790,877.360901 522.975586,859.436707 
M457.335541,830.679138 
	C477.951416,829.545227 498.567261,828.411316 520.493469,827.205322 
	C474.462738,818.941040 430.753326,825.667786 387.276306,835.847290 
	C410.316162,834.134399 433.355988,832.421509 457.335541,830.679138 
M425.773468,542.751099 
	C389.261078,514.767029 355.963409,483.162903 323.112915,451.056976 
	C358.050079,493.104858 397.293823,530.244324 444.989929,557.705688 
	C438.760986,552.879944 432.532043,548.054199 425.773468,542.751099 
M345.893860,610.686646 
	C341.071503,608.753723 336.789948,605.271179 331.092133,605.619934 
	C374.574158,630.930664 419.488647,653.367493 464.672028,675.305603 
	C426.603973,651.473206 386.825104,630.805298 345.893860,610.686646 
M463.576569,506.920776 
	C465.878296,509.418945 468.180023,511.917145 470.481781,514.415344 
	C470.815765,514.144836 471.149750,513.874329 471.483734,513.603821 
	C470.066193,511.670258 468.578430,509.783875 467.242065,507.795685 
	C455.550110,490.400513 440.434387,476.040375 426.020203,461.040466 
	C405.918457,440.121857 384.843811,420.299988 361.702728,402.748749 
	C360.002319,401.459076 358.320160,399.887268 354.936920,400.311432 
	C356.904694,402.174713 358.143494,403.492645 359.527008,404.635345 
	C373.141113,415.879608 386.176605,427.769562 399.039581,439.857086 
	C421.504120,460.967255 442.303589,483.678589 463.576569,506.920776 
M563.832458,344.294098 
	C597.663757,321.966614 628.346252,295.691925 658.596497,268.865723 
	C618.128540,296.780151 579.839478,327.540405 541.144897,357.805542 
	C549.165527,354.451691 556.129822,349.462921 563.832458,344.294098 
M469.968903,178.475922 
	C468.070435,174.757065 466.971161,170.596573 463.896484,167.487640 
	C476.888275,212.046570 495.970947,254.232712 513.107727,297.166321 
	C511.776215,286.963531 507.949646,277.528625 505.070007,267.819885 
	C496.010742,237.276230 482.809357,208.351669 469.968903,178.475922 
M501.655457,174.775131 
	C497.060730,161.412735 494.295868,147.405411 487.641815,134.759644 
	C498.243774,182.344467 512.132202,228.905579 530.521179,274.086304 
	C522.854187,240.689056 512.771729,207.994293 501.655457,174.775131 
M628.608032,214.126007 
	C642.818359,198.784439 655.706970,182.452057 666.279114,164.352615 
	C651.108582,179.987366 637.870361,197.259125 622.889893,213.012161 
	C607.956787,228.715454 590.862427,242.061172 575.309998,257.106689 
	C595.625427,246.266464 612.704468,231.476593 628.608032,214.126007 
M493.681854,835.959717 
	C502.953888,834.764465 512.184204,833.347839 521.243713,831.025513 
	C508.659485,829.984680 415.277191,834.813904 391.230347,839.761719 
	C400.858734,839.930542 410.488953,839.901245 420.118988,839.936279 
	C444.419983,840.024780 468.669342,839.149963 493.681854,835.959717 
M614.256287,434.736481 
	C636.550293,417.824005 657.940796,399.869751 677.664246,379.958954 
	C633.796204,416.736359 587.612366,450.394196 540.564880,482.940918 
	C566.031982,468.621490 590.255554,452.492706 614.256287,434.736481 
M606.782898,393.331024 
	C596.414490,400.298309 586.113708,407.368927 575.658569,414.203522 
	C565.394714,420.913025 554.974182,427.382721 544.084351,434.299377 
	C604.288269,405.859039 653.157959,363.730286 697.781006,316.120239 
	C668.026367,342.162842 640.018799,370.277222 606.782898,393.331024 
M510.572021,306.919922 
	C512.739075,310.701050 514.906128,314.482147 517.073181,318.263275 
	C500.805664,272.538544 480.816711,228.332626 464.608765,182.646088 
	C475.671692,225.387466 490.356445,266.782898 510.572021,306.919922 
M517.419678,704.937317 
	C516.018066,712.741699 519.525513,719.403259 522.365845,726.653442 
	C532.509338,707.536499 545.587219,690.819031 557.840210,673.507446 
	C544.636597,684.064453 531.262390,694.228394 517.419678,704.937317 
M579.957214,317.482300 
	C567.473328,327.628174 555.301697,338.115753 544.408386,350.043701 
	C585.571411,319.938751 625.338623,288.022430 666.674438,258.179901 
	C658.537781,263.109222 650.861206,268.687225 642.864380,273.760468 
	C621.478577,287.327698 600.611511,301.624207 579.957214,317.482300 
M512.324036,233.061020 
	C507.518036,217.834625 502.512634,202.667526 497.962372,187.365097 
	C493.442535,172.165039 490.309143,156.562576 485.136993,141.544708 
	C493.445129,188.882706 504.350006,235.415970 526.764954,278.352325 
	C527.200989,278.210846 527.637024,278.069397 528.073059,277.927917 
	C522.910156,263.221527 517.747253,248.515121 512.324036,233.061020 
M539.281006,408.761993 
	C537.531799,410.292145 535.782532,411.822327 534.033325,413.352478 
	C553.971436,405.793671 622.033997,350.399109 625.658875,339.030884 
	C596.468018,362.088409 567.967346,384.976624 539.281006,408.761993 
M530.999023,757.119690 
	C535.250793,752.179260 538.104431,746.325623 541.531677,740.853577 
	C547.872559,730.729675 555.291321,721.371277 562.061218,711.472168 
	C550.240234,719.162292 538.752380,727.249512 526.673706,734.426758 
	C525.523804,735.110107 524.156189,736.089600 524.341003,737.460022 
	C525.274353,744.380432 525.462280,751.568176 530.999023,757.119690 
M409.122864,502.369263 
	C424.455231,517.080688 439.787567,531.792175 455.119934,546.503601 
	C455.440704,546.161377 455.761505,545.819153 456.082306,545.476929 
	C427.440125,511.637634 395.341827,481.510376 358.934265,456.014954 
	C375.355042,471.450958 392.282654,486.340668 409.122864,502.369263 
M647.734741,218.245300 
	C650.208435,215.684402 652.682190,213.123505 655.155945,210.562592 
	C654.819763,210.258621 654.483582,209.954666 654.147400,209.650696 
	C622.887207,236.063461 591.627075,262.476227 560.366882,288.888977 
	C570.200500,285.506439 578.257202,279.389130 586.275085,273.234558 
	C607.957092,256.591095 627.700684,237.773834 647.734741,218.245300 
M677.104004,600.645020 
	C650.872253,618.805908 625.129395,637.516663 606.296753,664.019775 
	C633.768555,638.763550 664.221558,617.048828 691.936401,592.049866 
	C686.435303,593.685852 682.038574,596.916565 677.104004,600.645020 
M610.597168,211.112152 
	C626.876648,194.330765 643.156189,177.549393 659.435730,160.768021 
	C645.202026,166.918930 576.584717,236.869659 574.128784,246.734711 
	C587.401672,235.824768 598.099365,223.039169 610.597168,211.112152 
M493.948730,618.613098 
	C495.558105,617.761780 494.843658,616.255005 494.807129,615.065674 
	C494.618744,608.927185 494.095856,602.792603 494.100861,596.656982 
	C494.103851,592.993408 492.512573,590.851685 489.524750,589.106140 
	C480.633728,583.911743 471.835846,578.558044 462.976196,573.309509 
	C461.903503,572.674072 460.782715,571.651550 458.634552,573.161743 
	C472.159698,586.855042 483.007782,602.460510 493.948730,618.613098 
M489.121735,192.617111 
	C495.078308,220.403839 504.519714,246.853287 519.576843,271.185913 
	C497.854309,226.291016 490.035004,177.314117 477.772919,129.617706 
	C480.879517,150.489151 484.318359,171.252487 489.121735,192.617111 
M598.650024,253.128052 
	C603.841431,248.706955 609.020691,244.271545 614.227600,239.868820 
	C619.434021,235.466537 624.662170,231.089981 629.891418,226.714828 
	C635.121094,222.339294 640.507446,218.138138 645.559692,213.567169 
	C650.381592,209.204620 656.290283,205.900574 659.543457,199.913528 
	C625.602600,226.204010 590.248535,250.787094 561.226746,282.819489 
	C561.502808,283.155487 561.778809,283.491455 562.054810,283.827423 
	C574.071838,273.746613 586.088867,263.665802 598.650024,253.128052 
M509.178894,524.623352 
	C522.329712,511.670532 536.936096,500.346802 550.676575,487.999023 
	C549.764526,487.783295 549.115601,487.883820 548.550781,488.157684 
	C534.942139,494.755371 521.343994,501.374542 507.738251,507.978210 
	C506.816437,508.425629 505.730591,508.921478 505.648041,509.946747 
	C505.167511,515.914978 503.624634,521.874329 504.701172,528.015747 
	C506.969666,527.612183 507.603363,526.088928 509.178894,524.623352 
M577.352539,767.852234 
	C580.725647,764.418274 584.490295,761.311462 586.865967,756.963989 
	C585.158997,757.215210 583.754211,757.741943 582.586060,758.593323 
	C568.868347,768.590393 555.794495,779.461182 541.585571,788.792908 
	C540.440247,789.545105 539.228027,790.425049 539.781860,791.983826 
	C541.201233,795.979004 541.768250,800.345825 544.787842,804.200806 
	C555.274780,791.783264 565.723145,779.758423 577.352539,767.852234 
M508.752991,331.881500 
	C512.036011,342.257904 515.319031,352.634338 519.015015,364.315796 
	C522.590881,357.503906 523.259827,351.708923 524.524658,346.088104 
	C525.267212,342.788361 524.506958,339.994537 522.333496,337.306946 
	C517.322815,331.110962 512.593567,324.702850 508.538727,317.809967 
	C504.877014,311.585419 501.019287,305.476166 497.248047,299.316071 
	C496.917206,299.467865 496.586365,299.619659 496.255524,299.771484 
	C500.311035,310.242004 504.366547,320.712524 508.752991,331.881500 
M600.579285,265.033051 
	C599.210449,266.466095 596.995605,267.168945 596.894531,269.771393 
	C628.156799,250.500214 652.886292,224.243759 675.794800,196.025818 
	C650.768799,218.739670 627.200500,243.033585 600.579285,265.033051 
M543.843628,206.420776 
	C541.907898,196.304855 539.933838,186.196075 538.047180,176.070999 
	C536.130981,165.787247 534.311646,155.493439 533.288025,145.062683 
	C532.312500,135.121292 530.997314,125.213219 529.831482,115.290489 
	C526.520691,134.433243 534.359314,203.874939 546.609802,222.355026 
	C546.744446,216.662659 544.694214,212.049042 543.843628,206.420776 
M638.521729,186.021378 
	C617.534912,207.419998 596.548096,228.818619 575.561279,250.217239 
	C607.151489,227.284012 633.807068,199.513840 656.538757,167.877792 
	C650.697571,173.756866 644.856384,179.635925 638.521729,186.021378 
M633.219727,93.694389 
	C618.792480,122.820503 603.440491,151.478851 588.655090,180.423782 
	C601.782532,169.754410 638.168579,98.273834 638.040527,84.339249 
	C636.421448,87.449394 634.972473,90.232880 633.219727,93.694389 
M392.086731,767.422119 
	C422.146088,774.882629 460.807678,781.244812 470.583649,780.129639 
	C427.600006,773.659729 385.806763,762.451782 344.678375,748.496643 
	C359.705994,756.130432 375.380829,761.987061 392.086731,767.422119 
M517.672729,531.335693 
	C514.258972,532.630127 510.854889,533.950806 507.426910,535.206421 
	C505.981689,535.735840 504.507812,536.258179 504.234619,537.984985 
	C503.133759,544.943054 503.067657,551.910583 503.855743,560.287415 
	C515.522644,546.040527 527.129028,533.529968 539.956055,522.072998 
	C532.174561,524.016907 525.477600,528.003601 517.672729,531.335693 
M534.891052,777.534363 
	C535.714539,779.256165 535.653931,781.455688 537.930847,782.887085 
	C548.882935,767.679321 559.980408,752.659302 571.744629,738.071777 
	C570.476196,738.337341 569.476929,738.855347 568.593933,739.526428 
	C557.462708,747.986023 546.745667,756.996765 535.096802,764.766235 
	C532.463867,766.522339 531.735168,768.669739 532.943604,771.609619 
	C533.637085,773.296753 534.081482,775.086304 534.891052,777.534363 
M521.469055,174.102402 
	C523.121582,181.055496 524.710388,188.024536 526.444336,194.957245 
	C528.219177,202.053207 530.053345,209.136688 532.014893,216.182938 
	C533.878906,222.878494 535.941101,229.518845 537.916077,236.183472 
	C531.538879,198.883835 524.745789,161.744110 513.171387,125.744186 
	C512.638489,125.860085 512.105652,125.975983 511.572754,126.091881 
	C514.834717,141.818710 518.096741,157.545532 521.469055,174.102402 
M524.769836,599.269104 
	C529.316589,594.435730 533.863342,589.602356 538.911621,584.235840 
	C527.776184,588.677368 517.298523,592.860229 506.816681,597.032776 
	C505.522583,597.547852 504.205658,598.238159 504.203491,599.735229 
	C504.194641,605.788147 503.613281,611.914307 505.386475,617.447876 
	C511.776184,611.466248 518.023315,605.618164 524.769836,599.269104 
M549.357422,528.833923 
	C586.341064,500.161316 626.639771,476.710236 667.533447,454.198883 
	C617.468262,477.587402 571.130005,506.745911 528.937866,542.315125 
	C529.180237,542.679565 529.422668,543.044006 529.665039,543.408447 
	C536.035950,538.688049 542.406860,533.967712 549.357422,528.833923 
M509.139130,468.100372 
	C509.310791,469.638214 508.375671,471.400299 510.492462,473.079529 
	C523.725281,458.728516 539.107117,446.751648 553.861816,433.942627 
	C551.446350,434.385956 549.411194,435.363403 547.445984,436.465637 
	C537.728333,441.916046 528.046265,447.591064 517.570801,451.323090 
	C511.279663,453.564423 509.541321,457.540253 509.341705,463.269867 
	C509.295410,464.598816 509.248291,465.927795 509.139130,468.100372 
M641.416870,130.682739 
	C639.612061,131.045258 638.736816,132.580322 637.616394,133.767487 
	C620.192688,152.228775 605.163513,172.569016 590.965637,193.543167 
	C587.955078,197.990601 584.468140,202.224289 582.146912,208.762527 
	C587.404968,204.023560 590.286072,199.159149 593.806213,194.838562 
	C609.686951,175.346863 625.100769,155.490234 640.159363,135.359222 
	C641.096741,134.106033 643.399231,133.119217 641.416870,130.682739 
M508.414276,584.853149 
	C518.126709,572.903503 529.817932,562.894348 542.054688,551.436523 
	C539.962280,551.880554 539.304504,551.893250 538.765991,552.153076 
	C527.710571,557.486450 516.671265,562.853149 505.620270,568.195740 
	C504.526733,568.724426 503.406982,569.355591 503.390106,570.634705 
	C503.311157,576.626282 503.355042,582.619385 503.355042,589.773438 
	C505.592316,587.636414 506.776184,586.505554 508.414276,584.853149 
M525.142090,200.221100 
	C519.348022,174.508804 513.553955,148.796524 507.759888,123.084236 
	C509.842255,163.465332 521.126709,201.630997 535.589600,239.024796 
	C532.187683,226.352417 528.785767,213.680038 525.142090,200.221100 
M466.889648,711.653687 
	C442.608368,696.374390 418.591248,680.572266 390.371277,673.059631 
	C422.547699,688.960388 453.292603,707.443054 484.207184,725.617126 
	C484.421967,725.257996 484.636780,724.898804 484.851562,724.539673 
	C479.059967,720.384888 473.268341,716.230164 466.889648,711.653687 
M604.056396,196.354004 
	C597.203918,204.083054 590.351440,211.812119 583.498962,219.541183 
	C583.932251,219.901932 584.365540,220.262680 584.798828,220.623413 
	C610.900452,195.270706 635.780273,168.914078 653.229675,136.457199 
	C639.408325,152.303375 629.902039,171.583298 613.574219,185.500061 
	C617.409485,180.214005 621.244751,174.927933 625.080078,169.641876 
	C619.083862,175.764908 613.796387,182.395447 608.357849,188.899704 
	C606.619385,190.978882 605.072815,193.067154 604.056396,196.354004 
M477.622131,506.910614 
	C473.361694,504.096283 469.828705,500.161896 464.445068,498.811676 
	C474.107422,512.247437 483.769775,525.683228 493.432129,539.118958 
	C494.772095,534.316406 495.085541,530.039246 495.444702,525.765869 
	C495.734528,522.317139 494.472626,519.687012 491.665863,517.620728 
	C487.116150,514.271423 482.671844,510.778900 477.622131,506.910614 
M628.213989,87.661774 
	C625.982849,87.227104 625.742249,89.332085 624.851746,90.443901 
	C607.983826,111.505363 596.813477,135.629272 587.323730,160.638870 
	C586.925537,161.688049 585.869995,163.019394 588.115845,164.727753 
	C600.769104,138.663071 614.807129,113.592171 628.213989,87.661774 
M535.549744,279.006958 
	C537.288635,282.236023 536.141724,286.506653 539.580994,290.212708 
	C542.225525,282.027863 546.249573,275.239624 541.510376,266.870575 
	C536.110107,257.334076 531.708313,247.232117 526.873840,237.375275 
	C525.926575,235.443939 524.985352,233.509689 524.041382,231.576782 
	C523.645081,231.751358 523.248779,231.925934 522.852539,232.100510 
	C527.020813,247.470322 531.189148,262.840118 535.549744,279.006958 
M497.571136,500.094543 
	C497.659210,498.101257 497.730927,496.107056 497.840118,494.114899 
	C497.946106,492.180878 498.854919,490.096832 496.885132,488.546448 
	C488.487061,481.936401 480.075989,475.342865 471.669678,468.743317 
	C471.352570,469.018158 471.035461,469.292969 470.718353,469.567780 
	C479.513000,482.829529 487.145813,496.783966 496.066711,510.230469 
	C496.522614,507.140839 496.978516,504.051239 497.571136,500.094543 
M687.770630,754.767395 
	C657.828735,780.053284 625.163696,801.552490 592.514709,823.074036 
	C628.826782,805.189575 661.619385,782.413452 689.724121,753.136475 
	C689.217773,753.543579 688.711426,753.950684 687.770630,754.767395 
M571.046387,294.610138 
	C572.391174,293.197968 574.809082,292.613800 574.988342,289.940826 
	C572.280212,289.828613 570.594360,291.343842 568.723328,292.291321 
	C561.612915,295.892090 554.625305,299.743835 547.442566,303.191010 
	C540.514465,306.515991 535.490051,318.344788 538.219116,326.198883 
	C549.039917,315.755371 558.867981,304.449615 571.046387,294.610138 
M470.959778,223.318222 
	C479.386261,255.405090 491.709656,285.797058 510.125885,313.542755 
	C495.413239,283.194275 482.729401,251.998093 472.012512,219.503159 
	C470.311310,221.056458 470.613739,221.871170 470.959778,223.318222 
M568.231018,365.747345 
	C560.189514,371.650299 551.852051,377.177429 544.843018,384.397858 
	C576.136475,363.726379 606.390564,341.711395 633.711426,315.876038 
	C628.680603,318.770264 623.953552,322.078003 619.412048,325.623444 
	C602.513489,338.815887 585.675964,352.086426 568.231018,365.747345 
M600.495544,707.981689 
	C602.843079,705.866821 605.232056,703.795776 607.526428,701.624756 
	C609.821350,699.453125 612.063110,697.221313 614.251526,694.942261 
	C616.268677,692.841553 618.695618,691.004089 619.445068,687.949158 
	C595.067566,707.541321 571.270874,727.671448 549.026428,749.585083 
	C567.942871,738.262512 583.288635,722.528503 600.495544,707.981689 
M524.960999,484.451874 
	C529.085022,480.111938 534.327026,476.872040 538.461304,471.329498 
	C536.919373,471.431580 536.238098,471.317322 535.690735,471.536804 
	C527.072083,474.991913 518.472595,478.494690 509.863281,481.972931 
	C508.563812,482.497955 507.561096,483.245422 507.251984,484.713654 
	C506.136047,490.014832 505.975830,495.315491 506.758118,501.518616 
	C513.105957,495.564056 518.772400,490.248688 524.960999,484.451874 
M566.701294,324.133789 
	C565.397827,323.402496 564.517639,324.462006 563.583252,324.968750 
	C553.952698,330.191711 544.913574,336.514587 534.620117,340.503510 
	C533.113770,341.087219 532.110229,342.189026 531.739136,343.721252 
	C530.303772,349.648285 528.935913,355.591614 527.542908,361.528900 
	C533.134583,357.240112 536.732605,351.418610 541.865234,346.971588 
	C550.273804,339.686157 558.394775,332.068756 566.701294,324.133789 
M542.598328,135.822327 
	C540.773071,125.197441 540.114136,114.342087 536.237854,104.104370 
	C538.550964,136.018051 543.611084,167.533981 549.596802,198.926956 
	C548.389648,178.059372 545.218933,157.418427 542.598328,135.822327 
M556.566101,181.907944 
	C556.662415,180.266251 556.971924,178.604919 556.822937,176.985794 
	C554.643188,153.295929 552.463318,129.605591 550.093506,105.934372 
	C549.818848,103.191376 550.376526,100.131088 548.038452,97.700562 
	C548.262817,125.926735 549.502563,154.033691 556.566101,181.907944 
M420.252411,305.211700 
	C417.984955,301.505127 415.717468,297.798523 413.450012,294.091949 
	C429.565216,327.504272 449.448944,358.695618 468.176453,390.557617 
	C454.052551,361.339508 437.436920,333.534271 420.252411,305.211700 
M587.080200,73.490395 
	C578.633423,100.012825 569.529602,150.049347 572.149170,157.978119 
	C576.739075,126.171700 583.810059,94.869331 591.870361,63.767960 
	C591.437561,63.659504 591.004700,63.551048 590.571899,63.442593 
	C589.468994,66.536049 588.366089,69.629509 587.080200,73.490395 
M454.295105,579.201477 
	C462.611206,587.608215 470.076233,596.857361 479.330383,604.342712 
	C466.392670,585.860107 452.960907,567.859009 433.803741,555.378418 
	C433.280273,555.878296 432.756805,556.378113 432.233368,556.877991 
	C439.426178,564.142761 446.618988,571.407532 454.295105,579.201477 
M594.703674,65.265694 
	C587.080933,91.452820 581.326660,118.020164 578.197449,145.145050 
	C579.455200,143.130295 580.229919,140.996780 580.724487,138.800201 
	C585.574402,117.262329 590.437500,95.726974 595.124756,74.153496 
	C595.774841,71.161560 597.237793,67.944801 594.703674,65.265694 
M494.049835,853.559082 
	C487.314819,855.983643 480.539459,858.302856 473.856262,860.862732 
	C467.329559,863.362671 460.825562,865.948120 454.443146,868.791321 
	C448.098846,871.617493 441.918304,874.811401 435.665924,877.843994 
	C466.513245,866.504517 496.961151,854.357666 528.926270,846.555054 
	C517.272827,847.526001 505.906006,849.747437 494.049835,853.559082 
M478.590088,272.954468 
	C484.451477,285.411804 490.312866,297.869141 496.174255,310.326447 
	C485.407196,279.721558 473.038849,249.897171 453.380463,223.640091 
	C461.676727,239.853439 469.972992,256.066772 478.590088,272.954468 
M476.671600,444.120819 
	C483.734802,456.055603 491.323486,467.668610 498.115967,480.751953 
	C500.113312,476.491089 500.525513,473.076416 500.808685,469.615265 
	C501.032349,466.881775 501.067657,464.233948 498.607635,462.352600 
	C492.239227,457.482269 486.867615,451.538086 480.994354,446.135559 
	C479.806030,445.042480 478.887756,443.066498 476.671600,444.120819 
M542.694153,222.623917 
	C541.344543,219.670685 541.331238,216.047318 537.576416,214.084229 
	C540.592834,228.923752 543.609253,243.763275 546.625671,258.602783 
	C547.416992,258.558350 548.208313,258.513885 548.999634,258.469421 
	C550.372986,252.776718 554.656860,247.748993 551.077759,240.988602 
	C548.053406,235.276138 545.645264,229.237457 542.694153,222.623917 
M545.846069,638.373413 
	C540.649170,642.188293 535.452209,646.003235 530.255249,649.818176 
	C550.509521,638.927979 571.867249,629.566589 586.392761,610.795654 
	C586.109741,610.404541 585.826782,610.013367 585.543823,609.622253 
	C572.509094,619.073181 559.474304,628.524170 545.846069,638.373413 
M479.994904,864.538086 
	C472.697754,867.330078 465.361389,870.024597 458.114563,872.941772 
	C450.937775,875.830688 443.851349,878.944092 436.725311,881.959045 
	C465.136108,873.663635 492.948303,863.859558 520.291809,852.714050 
	C506.734680,855.352966 493.639374,859.494751 479.994904,864.538086 
M562.678284,253.198898 
	C570.635803,243.965973 578.593323,234.733047 586.663757,225.369064 
	C585.076416,224.560837 584.490723,225.281891 583.886108,225.758469 
	C575.799438,232.133408 567.930725,238.772354 559.742065,245.035538 
	C555.151245,248.546875 555.442261,254.797775 555.096191,260.428436 
	C558.418823,258.977264 560.085999,256.112823 562.678284,253.198898 
M603.985474,186.462799 
	C596.192932,195.863495 588.683960,205.477188 582.049927,215.754547 
	C603.206787,197.238464 617.022766,172.985077 633.656616,150.935989 
	C633.334412,150.681503 633.012207,150.427017 632.689941,150.172531 
	C623.266907,162.083160 613.843811,173.993774 603.985474,186.462799 
M548.183655,280.832184 
	C547.232544,284.653015 546.281494,288.473846 545.324280,292.319427 
	C555.407898,281.847046 565.310425,271.562744 573.962280,262.577362 
	C567.533997,266.444733 559.436523,271.307709 551.350098,276.188904 
	C549.858154,277.089478 548.987610,278.491394 548.183655,280.832184 
M538.426880,415.363403 
	C532.107971,419.025940 525.784668,422.680817 519.471558,426.353333 
	C513.942871,429.569519 511.642273,436.550385 514.218994,443.135559 
	C523.446838,433.449829 532.543213,423.902039 541.639648,414.354248 
	C541.473022,414.186737 541.306396,414.019257 541.139709,413.851746 
	C540.421997,414.262726 539.704285,414.673706 538.426880,415.363403 
M532.634155,370.251343 
	C520.341736,372.810181 524.544617,383.830780 521.646423,391.257355 
	C530.966797,381.386108 539.941284,371.317719 549.385193,361.454071 
	C544.032593,364.287872 538.679932,367.121704 532.634155,370.251343 
M519.689758,401.372009 
	C518.029358,406.349976 517.304565,411.437256 517.194519,416.596375 
	C517.625732,416.802887 518.056946,417.009430 518.488098,417.215973 
	C526.586365,408.213806 534.684570,399.211670 542.782776,390.209534 
	C542.646423,390.044067 542.510071,389.878632 542.373657,389.713165 
	C534.987000,393.413544 527.600342,397.113922 519.689758,401.372009 
M595.153259,87.571342 
	C590.299316,108.628479 584.903137,129.570358 581.652527,150.971344 
	C589.339233,126.531502 595.431824,101.740906 598.111755,76.182945 
	C597.170166,79.707481 596.228577,83.232025 595.153259,87.571342 
M602.776489,142.218002 
	C599.319275,149.833923 594.504944,156.836151 592.439392,165.097504 
	C605.430420,141.983673 618.267090,118.805702 628.981323,94.521210 
	C619.628601,109.797508 610.645264,125.273613 602.776489,142.218002 
M554.084045,204.698730 
	C554.914246,212.732742 555.049194,220.875076 557.644287,228.767441 
	C559.635376,224.507553 562.719299,220.615860 561.066833,215.764908 
	C559.079529,209.930756 558.063416,203.886673 556.591248,197.941360 
	C555.429504,193.249557 554.737549,188.377472 551.828613,184.106720 
	C552.538818,190.668839 553.249023,197.230957 554.084045,204.698730 
M513.593628,188.149368 
	C517.123230,204.133102 521.515747,219.822403 529.396118,234.332138 
	C522.757385,214.796997 517.821533,194.748886 512.101074,174.941299 
	C511.701935,175.052811 511.302826,175.164322 510.903687,175.275833 
	C511.778839,179.318527 512.653992,183.361206 513.593628,188.149368 
M557.712830,311.017395 
	C557.085510,312.015961 555.342163,312.471313 556.399719,314.909180 
	C569.290771,304.564575 581.252625,293.625366 592.920776,282.340027 
	C579.640808,289.675140 569.267395,300.539825 557.712830,311.017395 
M542.755249,590.242004 
	C549.436035,584.886353 556.116882,579.530701 562.797729,574.175049 
	C550.929565,577.912476 540.749634,585.973633 529.657532,600.177002 
	C533.838745,597.015991 538.020020,593.854980 542.755249,590.242004 
M542.775818,186.907974 
	C543.395996,188.932999 543.171936,191.200516 545.004578,193.856445 
	C542.674988,172.236481 538.271790,151.833176 535.292175,131.217270 
	C535.968811,149.761429 538.815796,168.022232 542.775818,186.907974 
M557.252502,108.006409 
	C558.921936,123.635017 560.591431,139.263626 562.409241,156.280991 
	C563.404724,144.240204 558.861084,102.399467 555.926453,96.600418 
	C556.393372,100.601608 556.776733,103.886269 557.252502,108.006409 
M544.267700,373.888733 
	C554.125671,365.369598 563.983643,356.850464 573.841614,348.331329 
	C561.933716,354.689819 552.441956,363.914856 543.151672,373.371063 
	C542.725769,373.804565 543.161316,374.252625 544.267700,373.888733 
M548.580750,550.082642 
	C544.577026,554.111572 539.550903,557.057983 536.216187,561.825500 
	C546.840637,555.217041 555.815735,546.537354 565.618835,538.895020 
	C559.130249,541.010315 554.242554,545.500488 548.580750,550.082642 
M588.425354,682.007935 
	C588.643799,681.633911 589.147827,681.243896 588.406616,680.907959 
	C588.303223,680.861084 588.074463,680.978027 587.961243,681.081848 
	C578.320923,689.919189 568.686401,698.762634 559.051392,707.605713 
	C570.157898,700.804932 579.270630,691.784241 588.425354,682.007935 
M721.341919,435.842255 
	C729.278259,429.912872 729.278259,429.912872 730.174683,426.208862 
	C723.034363,431.478851 715.551086,435.342834 708.719666,442.179199 
	C714.513062,441.692871 716.990051,437.745514 721.341919,435.842255 
M557.044556,146.803513 
	C557.268555,154.138184 558.187500,161.392792 559.551025,168.601669 
	C559.345886,160.988129 559.311340,153.367203 557.896851,145.849426 
	C557.818726,145.434036 557.526062,144.756424 557.096497,145.709839 
	C557.032166,145.852615 557.060059,146.036957 557.044556,146.803513 
M342.838562,651.394531 
	C347.468933,653.851929 352.098541,656.311157 357.332672,657.301025 
	C352.850342,654.102417 348.213287,651.219177 342.798401,649.939697 
	C340.767487,649.459900 341.075714,650.165405 342.838562,651.394531 
M463.675232,457.104889 
	C467.242432,460.177307 470.809631,463.249725 474.376862,466.322144 
	C474.286041,466.387909 474.195221,466.453674 474.104431,466.519440 
	C470.156464,462.352051 466.208527,458.184662 462.240417,453.995972 
	C461.831970,455.216736 462.719910,455.860901 463.675232,457.104889 
M507.899811,450.595795 
	C508.302399,448.141998 509.151825,445.713257 507.978607,443.141357 
	C506.982208,449.726746 505.985779,456.312164 504.989349,462.897583 
	C505.321899,462.950592 505.654449,463.003632 505.987000,463.056641 
	C506.591858,459.186035 507.196716,455.315460 507.899811,450.595795 
M549.986877,389.317139 
	C554.332825,385.384888 559.158569,381.952026 562.584656,377.043671 
	C557.945740,380.832764 553.501404,384.842316 549.105713,388.904510 
	C548.673462,389.303894 548.885864,389.768982 549.986877,389.317139 
M553.794128,113.178894 
	C554.322327,118.899750 554.850525,124.620605 555.378723,130.341461 
	C555.630676,124.412628 555.940552,118.491096 553.794128,113.178894 
M294.134521,531.660217 
	C291.904968,529.509827 289.605286,527.475098 285.798340,526.683655 
	C288.026184,529.665344 290.658600,531.317749 293.108856,533.131165 
	C294.066223,533.839661 295.119995,533.894226 294.134521,531.660217 
z"/>
</svg>